#define iconify_width 8
#define iconify_height 9
static unsigned char iconify_bits[] = {
   0x00, 0x00, 0x00, 0x00, 0xff, 0x00, 0x00, 0x00, 0x00 };
